<svg width="50" height="50" viewBox="0 0 50 50" fill="none" xmlns="http://www.w3.org/2000/svg">
<g clip-path="url(#clip0_6079_23)">
<path d="M48.2811 16.3758H47.8038L43.3291 4.32839C42.9373 3.2736 41.9182 2.56491 40.793 2.56491H9.20693C8.08184 2.56491 7.0626 3.2736 6.6708 4.32839L2.19619 16.3758H1.71895C0.771094 16.3758 0 17.1468 0 18.0947V19.4757C0 20.4236 0.771094 21.1947 1.71895 21.1947H1.97305V37.2484C1.97305 37.6529 2.30088 37.9808 2.70547 37.9808C3.11006 37.9808 3.43789 37.6529 3.43789 37.2484V21.1947H14.9379C15.5814 21.1947 16.1865 20.9441 16.6417 20.4889L25 12.1304L33.3585 20.4889C33.8136 20.944 34.4187 21.1946 35.0622 21.1946H46.5622V23.1364C46.5622 23.5409 46.89 23.8688 47.2946 23.8688C47.6992 23.8688 48.0271 23.5409 48.0271 23.1364V21.1946H48.2812C49.2289 21.1946 50.0001 20.4235 50.0001 19.4757V18.0946C50 17.1468 49.2289 16.3758 48.2811 16.3758ZM8.04395 4.83835C8.22363 4.35466 8.69102 4.02975 9.20693 4.02975H40.793C41.3089 4.02975 41.7763 4.35475 41.956 4.83835L46.2412 16.3758H36.0603L26.7037 7.01931C26.2486 6.56423 25.6437 6.31354 25 6.31354C24.3563 6.31354 23.7514 6.56413 23.2963 7.01931L13.9397 16.3758H3.75869L8.04395 4.83835ZM48.5352 19.4757C48.5352 19.6159 48.4212 19.7299 48.2811 19.7299H35.0622C34.8099 19.7299 34.5726 19.6316 34.3942 19.4532L25.5179 10.5768C25.3805 10.4394 25.1942 10.3623 24.9999 10.3623C24.8056 10.3623 24.6194 10.4394 24.4819 10.5768L15.6057 19.4532C15.4272 19.6316 15.1899 19.7299 14.9376 19.7299H1.71895C1.57881 19.7299 1.46484 19.6159 1.46484 19.4757V18.0947C1.46484 17.9546 1.57881 17.8406 1.71895 17.8406H14.2432C14.4374 17.8406 14.6236 17.7634 14.7611 17.626L24.3322 8.05505C24.5105 7.87663 24.7478 7.77839 25.0001 7.77839C25.2524 7.77839 25.4896 7.87663 25.668 8.05505L35.2391 17.626C35.3765 17.7634 35.5627 17.8406 35.757 17.8406H48.2812C48.4214 17.8406 48.5354 17.9546 48.5354 18.0947V19.4757H48.5352Z" fill="#2B7AF1"/>
<path d="M44.0393 41.5163C44.4438 41.5163 44.7717 41.1883 44.7717 40.7839V27.7623C44.7717 27.3578 44.4438 27.0298 44.0393 27.0298H34.1743C33.7697 27.0298 33.4419 27.3578 33.4419 27.7623V40.7839C33.4419 41.1883 33.7697 41.5163 34.1743 41.5163H44.0393ZM43.3068 36.8947H39.8392V33.4271H43.3068V36.8947ZM38.3743 36.8947H34.9067V33.4271H38.3743V36.8947ZM43.3068 40.0514H34.9067V38.3595H43.3068V40.0514ZM43.3068 31.9622H39.8392V28.4946H43.3068V31.9622ZM38.3743 28.4947V31.9623H34.9067V28.4947H38.3743Z" fill="#2B7AF1"/>
<path d="M15.8256 41.5163C16.2302 41.5163 16.5581 41.1883 16.5581 40.7839V27.7623C16.5581 27.3578 16.2302 27.0298 15.8256 27.0298H5.96069C5.5561 27.0298 5.22827 27.3578 5.22827 27.7623V40.7839C5.22827 41.1883 5.5561 41.5163 5.96069 41.5163H15.8256ZM15.0932 36.8947H11.6256V33.4271H15.0932V36.8947ZM10.1608 36.8947H6.69312V33.4271H10.1608V36.8947ZM15.0932 40.0514H6.69312V38.3595H15.0932V40.0514ZM15.0932 31.9622H11.6256V28.4946H15.0932V31.9622ZM10.1608 28.4947V31.9623H6.69312V28.4947H10.1608Z" fill="#2B7AF1"/>
<path d="M27.3675 30.1866H22.6323C22.2277 30.1866 21.8999 30.5145 21.8999 30.919V34.0758C21.8999 34.4803 22.2277 34.8082 22.6323 34.8082H27.3675C27.7721 34.8082 28.0999 34.4803 28.0999 34.0758V30.919C28.0999 30.5145 27.7721 30.1866 27.3675 30.1866ZM26.6351 33.3434H23.3647V31.6515H26.6351V33.3434Z" fill="url(#paint0_linear_6079_23)"/>
<path d="M28.8892 20.9555C28.8892 18.811 27.1445 17.0663 25 17.0663C22.8555 17.0663 21.1108 18.811 21.1108 20.9555C21.1108 23.0999 22.8555 24.8447 25 24.8447C27.1445 24.8447 28.8892 23.1 28.8892 20.9555ZM22.5757 20.9555C22.5757 19.6188 23.6633 18.5312 25 18.5312C26.3367 18.5312 27.4243 19.6188 27.4243 20.9555C27.4243 22.2922 26.3367 23.3799 25 23.3799C23.6633 23.3799 22.5757 22.2923 22.5757 20.9555Z" fill="url(#paint1_linear_6079_23)"/>
<path d="M49.2676 42.6162H48.0271V26.5625C48.0271 26.158 47.6992 25.8301 47.2946 25.8301C46.89 25.8301 46.5622 26.158 46.5622 26.5625V42.6162H31.2567V27.7622C31.2567 27.3577 30.9289 27.0298 30.5243 27.0298H19.4757C19.0711 27.0298 18.7433 27.3577 18.7433 27.7622V42.6162H3.43779V40.6744C3.43779 40.27 3.10996 39.942 2.70537 39.942C2.30078 39.942 1.97295 40.27 1.97295 40.6744V42.6162H0.732422C0.327832 42.6162 0 42.9442 0 43.3487V46.7028C0 47.1073 0.327832 47.4352 0.732422 47.4352H49.2676C49.6722 47.4352 50 47.1073 50 46.7028V43.3487C50 42.9442 49.6722 42.6162 49.2676 42.6162ZM20.2081 37.2743H21.2515C21.6561 37.2743 21.9839 36.9464 21.9839 36.5419C21.9839 36.1374 21.6561 35.8095 21.2515 35.8095H20.2081V28.4947H29.792V42.6162H20.2081V37.2743ZM48.5352 45.9703H1.46484V44.0811H48.5352V45.9703Z" fill="#2B7AF1"/>
</g>
<defs>
<linearGradient id="paint0_linear_6079_23" x1="21.8999" y1="32.4974" x2="28.101" y2="32.4638" gradientUnits="userSpaceOnUse">
<stop stop-color="#FF7A00"/>
<stop offset="1" stop-color="#FFB039"/>
</linearGradient>
<linearGradient id="paint1_linear_6079_23" x1="21.1108" y1="20.9555" x2="28.8906" y2="20.9241" gradientUnits="userSpaceOnUse">
<stop stop-color="#FF7A00"/>
<stop offset="1" stop-color="#FFB039"/>
</linearGradient>
<clipPath id="clip0_6079_23">
<rect width="50" height="50" fill="white"/>
</clipPath>
</defs>
</svg>
