<svg width="25" height="25" viewBox="0 0 25 25" fill="none" xmlns="http://www.w3.org/2000/svg">
<circle cx="12.5" cy="12.5" r="12.5" fill="#2B7AF1"/>
<g clip-path="url(#clip0_1_124)">
<path d="M17.7516 8.05776H7.24844C7.14941 8.05787 7.05447 8.0958 6.98446 8.16321C6.91444 8.23063 6.87508 8.32202 6.875 8.41734V9.14072C6.875 9.17404 6.91255 9.21229 6.94323 9.22776L12.4639 12.2629C12.4781 12.2706 12.4941 12.2747 12.5104 12.2745C12.527 12.2746 12.5434 12.2703 12.5577 12.2622L17.9115 9.23072C17.9416 9.21454 18.0214 9.17179 18.0514 9.15211C18.0876 9.12834 18.125 9.10682 18.125 9.06422V8.4172C18.1249 8.32191 18.0855 8.23055 18.0155 8.16316C17.9455 8.09578 17.8506 8.05787 17.7516 8.05776Z" fill="white"/>
<path d="M18.0784 10.2315C18.064 10.2236 18.0478 10.2195 18.0312 10.2196C18.0147 10.2197 17.9984 10.224 17.9842 10.232L14.9544 11.9478C14.9423 11.9546 14.932 11.9639 14.9242 11.975C14.9164 11.9861 14.9112 11.9988 14.9092 12.0121C14.9072 12.0254 14.9083 12.039 14.9124 12.0519C14.9166 12.0647 14.9237 12.0765 14.9332 12.0863L17.9634 15.2302C17.9721 15.2393 17.9827 15.2466 17.9944 15.2515C18.0062 15.2564 18.0188 15.259 18.0317 15.2589C18.0564 15.2589 18.0801 15.2494 18.0976 15.2326C18.1151 15.2157 18.125 15.1929 18.125 15.1691V10.3095C18.1251 10.2937 18.1208 10.2781 18.1126 10.2644C18.1044 10.2507 18.0926 10.2394 18.0784 10.2315Z" fill="white"/>
<path d="M14.0814 12.5239C14.067 12.5088 14.0477 12.4989 14.0267 12.4959C14.0056 12.4929 13.9842 12.4969 13.9658 12.5073L12.7514 13.1951C12.6803 13.2346 12.5996 13.2557 12.5175 13.2562C12.4353 13.2568 12.3544 13.2367 12.2827 13.198L11.214 12.6104C11.1967 12.6009 11.1768 12.597 11.157 12.5991C11.1373 12.6013 11.1188 12.6095 11.1042 12.6224L7.04576 16.2458C7.03512 16.2554 7.02695 16.2672 7.02191 16.2803C7.01686 16.2935 7.01507 16.3076 7.01669 16.3215C7.01831 16.3355 7.02329 16.3488 7.03123 16.3606C7.03916 16.3723 7.04985 16.3821 7.06242 16.3892C7.12554 16.4249 7.18646 16.442 7.24841 16.442H17.6441C17.6623 16.442 17.6801 16.4369 17.6953 16.4273C17.7105 16.4176 17.7224 16.4039 17.7296 16.3878C17.7369 16.3718 17.7391 16.3541 17.7361 16.3369C17.733 16.3197 17.7248 16.3037 17.7124 16.2909L14.0814 12.5239Z" fill="white"/>
<path d="M10.2111 12.1939C10.2219 12.1843 10.2301 12.1725 10.2353 12.1593C10.2404 12.1461 10.2422 12.1319 10.2405 12.1179C10.2389 12.1039 10.2339 12.0904 10.2258 12.0787C10.2178 12.0669 10.207 12.0571 10.1943 12.05L7.01424 10.3018C7.00005 10.294 6.98399 10.29 6.96767 10.2901C6.95135 10.2902 6.93534 10.2944 6.92124 10.3023C6.90715 10.3102 6.89546 10.3216 6.88734 10.3352C6.87923 10.3488 6.87497 10.3643 6.875 10.38V14.9672C6.8749 14.9847 6.88014 15.0019 6.89006 15.0165C6.89999 15.0312 6.91418 15.0428 6.93086 15.0498C6.94754 15.0568 6.966 15.0589 6.98393 15.0559C7.00187 15.053 7.0185 15.045 7.03177 15.033L10.2111 12.1939Z" fill="white"/>
</g>
<defs>
<clipPath id="clip0_1_124">
<rect width="12.5" height="12.5" fill="white" transform="translate(6.25 6.25)"/>
</clipPath>
</defs>
</svg>
