<svg width="25" height="25" viewBox="0 0 25 25" fill="none" xmlns="http://www.w3.org/2000/svg">
<circle cx="12.5" cy="12.5" r="12.5" fill="#2B7AF1"/>
<path d="M12.5 6.96381C11.3608 6.96515 10.2687 7.41829 9.46314 8.22382C8.65761 9.02935 8.20447 10.1215 8.20313 11.2607C8.20177 12.1916 8.50586 13.0973 9.06875 13.8388C9.06875 13.8388 9.18594 13.9931 9.20508 14.0154L12.5 17.9013L15.7965 14.0134C15.8137 13.9927 15.9313 13.8388 15.9313 13.8388L15.9316 13.8376C16.4943 13.0965 16.7982 12.1912 16.7969 11.2607C16.7955 10.1215 16.3424 9.02935 15.5369 8.22382C14.7313 7.41829 13.6392 6.96515 12.5 6.96381ZM13.9063 13.2138L12.5 12.3189L11.0938 13.2138L11.3281 11.6224L10.1563 10.547L11.7969 10.349L12.5 8.91693L13.2469 10.3494L14.8438 10.547L13.6719 11.6224L13.9063 13.2138Z" fill="white"/>
</svg>
