<svg width="50" height="50" viewBox="0 0 50 50" fill="none" xmlns="http://www.w3.org/2000/svg">
<g clip-path="url(#clip0_6079_675)">
<path d="M35.0323 16.4149C33.5738 16.4149 32.1468 16.6225 30.7711 17.0313C30.8255 16.5054 30.8537 15.9717 30.8537 15.4315C30.8537 12.9599 30.2864 10.5983 29.1678 8.41247C28.9219 7.93239 28.3336 7.74245 27.8538 7.98806C27.3738 8.23386 27.1837 8.82205 27.4293 9.30212C28.4057 11.2098 28.9007 13.2721 28.9007 15.4314C28.9007 22.8611 22.8563 28.9055 15.4267 28.9055C13.6947 28.9055 12.0077 28.5812 10.4131 27.9412C10.0503 27.796 9.63556 27.8807 9.3591 28.157L7.22521 30.2911V26.5934C7.22521 26.3016 7.09464 26.025 6.86935 25.8395C3.74483 23.2673 1.95274 19.4737 1.95274 15.4314C1.95274 8.00173 7.99718 1.95738 15.4268 1.95738C17.2201 1.95738 18.9611 2.30367 20.6016 2.98668C21.1309 3.20699 21.6517 3.46432 22.1495 3.75153C22.6164 4.02086 23.2135 3.8608 23.4831 3.39371C23.7525 2.92672 23.5923 2.32955 23.1252 2.06012C22.5551 1.73131 21.9585 1.43639 21.3522 1.18394C19.4727 0.401423 17.4791 0.00454712 15.4269 0.00454712C6.92052 0.00454712 0 6.92507 0 15.4314C0 19.9038 1.91553 24.1101 5.27247 27.0451V32.6483C5.27247 33.0432 5.51046 33.3992 5.87521 33.5503C5.99601 33.6003 6.12286 33.6246 6.24864 33.6246C6.50275 33.6246 6.75245 33.5254 6.93927 33.3387L10.2948 29.9831C11.9402 30.5641 13.6633 30.8582 15.4269 30.8582C17.062 30.8582 18.6381 30.6016 20.1181 30.128C20.0832 30.5452 20.0647 30.964 20.0647 31.3824C20.0647 33.6682 20.5667 35.8625 21.5569 37.9048C21.7257 38.2527 22.0737 38.4554 22.4361 38.4554C22.579 38.4554 22.7242 38.424 22.8614 38.3574C23.3465 38.1221 23.5492 37.538 23.3139 37.0528C22.4536 35.2784 22.0173 33.3706 22.0173 31.3825C22.0173 30.6842 22.0743 29.9849 22.1851 29.2969C26.2104 27.3269 29.257 23.6551 30.3812 19.2244C31.8635 18.6562 33.4256 18.3677 35.0322 18.3677C42.2087 18.3677 48.0472 24.2062 48.0472 31.3825C48.0472 35.3692 46.2557 39.0821 43.1322 41.5695C42.8995 41.7546 42.764 42.0358 42.764 42.3332V46.662L40.0895 43.9874C39.829 43.727 39.4443 43.6353 39.0946 43.7501C37.7861 44.1796 36.4193 44.3975 35.0322 44.3975C33.0478 44.3975 31.143 43.9627 29.3711 43.1052C28.8859 42.8705 28.3018 43.0734 28.0668 43.5588C27.832 44.0442 28.0351 44.6281 28.5205 44.863C30.5598 45.8498 32.7507 46.3501 35.0322 46.3501C36.4228 46.3501 37.7964 46.1595 39.1235 45.7828L43.0501 49.7093C43.2369 49.8962 43.4866 49.9953 43.7407 49.9953C43.8665 49.9953 43.9934 49.971 44.1141 49.921C44.4789 49.7698 44.7169 49.4138 44.7169 49.0189V42.7943C48.0807 39.9404 49.9999 35.8082 49.9999 31.3824C50.0001 23.1294 43.2855 16.4149 35.0323 16.4149Z" fill="#2B7AF1"/>
<path d="M25.9687 40.7226C25.9387 40.6937 25.909 40.6646 25.8794 40.6352C25.4966 40.2556 24.8783 40.2584 24.4987 40.6413C24.1191 41.0242 24.1219 41.6425 24.5048 42.0221C24.5393 42.0563 24.5739 42.0901 24.6087 42.1238C24.7984 42.308 25.0436 42.3995 25.2886 42.3995C25.5434 42.3995 25.798 42.3003 25.9894 42.1032C26.3649 41.7162 26.3556 41.0981 25.9687 40.7226Z" fill="url(#paint0_linear_6079_675)"/>
<path d="M26.7477 4.9513C26.3238 4.49886 25.7083 4.56566 25.3581 4.89183C25.008 5.21771 24.8974 5.82699 25.3184 6.28216C25.3214 6.28529 25.3244 6.28851 25.3273 6.29163C25.5381 6.51341 25.7944 6.60843 26.0421 6.60843C26.2964 6.60843 26.5411 6.50814 26.7175 6.34193C27.0653 6.01361 27.1718 5.40365 26.7477 4.9513Z" fill="url(#paint1_linear_6079_675)"/>
<path d="M11.1796 12.0622C10.998 11.8805 10.747 11.776 10.4893 11.776C10.2325 11.776 9.98062 11.8805 9.79898 12.0622C9.61743 12.2437 9.51294 12.4956 9.51294 12.7524C9.51294 13.0092 9.61743 13.2611 9.79898 13.4427C9.98062 13.6244 10.2325 13.7288 10.4893 13.7288C10.7461 13.7288 10.998 13.6244 11.1796 13.4427C11.3623 13.2611 11.4657 13.0092 11.4657 12.7524C11.4657 12.4956 11.3622 12.2436 11.1796 12.0622Z" fill="url(#paint2_linear_6079_675)"/>
<path d="M21.0546 12.0622C20.8731 11.8805 20.6212 11.776 20.3643 11.776C20.1065 11.776 19.8546 11.8805 19.6731 12.0622C19.4915 12.2437 19.3879 12.4956 19.3879 12.7524C19.3879 13.0092 19.4916 13.2611 19.6731 13.4427C19.8556 13.6244 20.1075 13.7288 20.3643 13.7288C20.6211 13.7288 20.872 13.6244 21.0546 13.4427C21.2363 13.2611 21.3407 13.0092 21.3407 12.7524C21.3407 12.4956 21.2364 12.2436 21.0546 12.0622Z" fill="url(#paint3_linear_6079_675)"/>
<path d="M19.1655 17.8299C18.6442 17.6904 18.1093 18.0003 17.9701 18.5212C17.6627 19.6723 16.6169 20.4762 15.427 20.4762C14.237 20.4762 13.1913 19.6723 12.8838 18.5212C12.7447 18.0002 12.2096 17.6903 11.6885 17.8299C11.1675 17.9692 10.858 18.5042 10.9972 19.0252C11.5326 21.0293 13.3541 22.4289 15.427 22.4289C17.4997 22.4289 19.3213 21.0293 19.8568 19.0252C19.9959 18.5041 19.6865 17.9691 19.1655 17.8299Z" fill="#2B7AF1"/>
<path d="M30.9493 28.0805C30.7678 27.8989 30.5169 27.7945 30.2591 27.7945C30.0022 27.7945 29.7504 27.8989 29.5687 28.0805C29.3871 28.2623 29.2827 28.514 29.2827 28.7709C29.2827 29.0287 29.3871 29.2796 29.5687 29.4611C29.7504 29.6427 30.0022 29.7472 30.2591 29.7472C30.5169 29.7472 30.7678 29.6427 30.9493 29.4611C31.1319 29.2796 31.2355 29.0277 31.2355 28.7709C31.2355 28.514 31.1319 28.2622 30.9493 28.0805Z" fill="url(#paint4_linear_6079_675)"/>
<path d="M40.4956 28.0807C40.3139 27.899 40.0629 27.7946 39.8052 27.7946C39.5484 27.7946 39.2965 27.899 39.1149 28.0807C38.9334 28.2623 38.8289 28.5142 38.8289 28.771C38.8289 29.0288 38.9334 29.2797 39.1149 29.4612C39.2965 29.6429 39.5484 29.7474 39.8052 29.7474C40.0629 29.7473 40.3139 29.6428 40.4956 29.4612C40.6771 29.2797 40.7816 29.0278 40.7816 28.771C40.7816 28.5142 40.6772 28.2623 40.4956 28.0807Z" fill="url(#paint5_linear_6079_675)"/>
<path d="M30.7183 34.8441C31.2395 36.7955 33.0136 38.1586 35.032 38.1586C37.0505 38.1586 38.8244 36.7956 39.3458 34.8441C39.4851 34.3231 39.1755 33.788 38.6545 33.6488C38.1331 33.5091 37.5984 33.8192 37.4592 34.3401C37.1657 35.4386 36.1675 36.2058 35.0321 36.2058C33.8965 36.2058 32.8983 35.4385 32.605 34.3401C32.4884 33.9035 32.0937 33.6154 31.6623 33.6154C31.5789 33.6154 31.494 33.6261 31.4096 33.6488C30.8886 33.788 30.5791 34.3231 30.7183 34.8441Z" fill="#2B7AF1"/>
</g>
<defs>
<linearGradient id="paint0_linear_6079_675" x1="24.2158" y1="41.3759" x2="26.2654" y2="41.3676" gradientUnits="userSpaceOnUse">
<stop stop-color="#FF7A00"/>
<stop offset="1" stop-color="#FFB039"/>
</linearGradient>
<linearGradient id="paint1_linear_6079_675" x1="25.0464" y1="5.619" x2="27.0247" y2="5.61103" gradientUnits="userSpaceOnUse">
<stop stop-color="#FF7A00"/>
<stop offset="1" stop-color="#FFB039"/>
</linearGradient>
<linearGradient id="paint2_linear_6079_675" x1="9.51294" y1="12.7524" x2="11.466" y2="12.7445" gradientUnits="userSpaceOnUse">
<stop stop-color="#FF7A00"/>
<stop offset="1" stop-color="#FFB039"/>
</linearGradient>
<linearGradient id="paint3_linear_6079_675" x1="19.3879" y1="12.7524" x2="21.341" y2="12.7445" gradientUnits="userSpaceOnUse">
<stop stop-color="#FF7A00"/>
<stop offset="1" stop-color="#FFB039"/>
</linearGradient>
<linearGradient id="paint4_linear_6079_675" x1="29.2827" y1="28.7709" x2="31.2358" y2="28.763" gradientUnits="userSpaceOnUse">
<stop stop-color="#FF7A00"/>
<stop offset="1" stop-color="#FFB039"/>
</linearGradient>
<linearGradient id="paint5_linear_6079_675" x1="38.8289" y1="28.771" x2="40.782" y2="28.7631" gradientUnits="userSpaceOnUse">
<stop stop-color="#FF7A00"/>
<stop offset="1" stop-color="#FFB039"/>
</linearGradient>
<clipPath id="clip0_6079_675">
<rect width="50" height="50" fill="white"/>
</clipPath>
</defs>
</svg>
