<svg width="50" height="50" viewBox="0 0 50 50" fill="none" xmlns="http://www.w3.org/2000/svg">
<path d="M3.39665 38.8381C3.58891 38.8381 3.77736 38.7599 3.91393 38.6234C4.05087 38.4864 4.12907 38.298 4.12907 38.1057C4.12907 37.9123 4.05087 37.7239 3.91393 37.5869C3.77736 37.4515 3.58891 37.3733 3.39665 37.3733C3.20325 37.3733 3.0148 37.4515 2.87785 37.5869C2.74205 37.7239 2.66309 37.9123 2.66309 38.1057C2.66309 38.298 2.74205 38.4864 2.87785 38.6234C3.0148 38.7599 3.20325 38.8381 3.39665 38.8381Z" fill="url(#paint0_linear_1_146)"/>
<path d="M48.7793 20.3617H44.4286C43.7557 20.3617 43.2079 20.9091 43.2079 21.5824V21.9303H41.098C40.4247 21.9303 39.8773 22.4777 39.8773 23.151V24.6628H28.3978C27.7634 24.6628 27.1671 24.9107 26.7185 25.3605L26.4084 25.6714L26.3306 25.5936C25.8011 25.0626 24.8627 24.6613 24.1459 24.6601H10.1223V23.1506C10.1223 22.4777 9.57489 21.9299 8.9016 21.9299H6.79207V21.582C6.79207 20.9091 6.24428 20.3613 5.57137 20.3613H1.2207C0.547409 20.3613 0 20.9091 0 21.582V40.3931C0 41.066 0.547409 41.6138 1.2207 41.6138H5.57137C6.24428 41.6138 6.79207 41.0664 6.79207 40.3931V40.0452H8.90198C9.57489 40.0452 10.1227 39.4974 10.1227 38.8245V38.2332L11.0031 38.863C10.9459 39.5805 11.1835 40.3099 11.721 40.8493C12.1902 41.3197 12.8204 41.5791 13.496 41.5791C13.5136 41.5791 13.5311 41.5779 13.5487 41.5775C13.5345 42.2447 13.7753 42.91 14.275 43.4109C14.7438 43.8816 15.374 44.1406 16.0496 44.1406C16.0671 44.1406 16.0847 44.1395 16.1026 44.1395C16.0881 44.8063 16.3292 45.472 16.8282 45.9728C17.2974 46.4432 17.9276 46.7022 18.6031 46.7022C18.6207 46.7022 18.6382 46.7014 18.6558 46.7011C18.6417 47.3682 18.8828 48.0335 19.3821 48.5344C19.8509 49.0048 20.4811 49.2642 21.1567 49.2642C21.859 49.2642 22.5216 48.9872 23.0221 48.4852L23.1949 48.3116C23.6015 48.5504 24.0662 48.6782 24.5514 48.6782C25.2701 48.6782 25.9438 48.399 26.4488 47.8924L26.6708 47.67C27.0134 47.3259 27.243 46.9112 27.3609 46.4726C27.7447 46.6782 28.1765 46.7873 28.6255 46.7873C29.3438 46.7873 30.0179 46.508 30.5229 46.0014L30.7449 45.7787C31.0734 45.4495 31.2981 45.055 31.4201 44.6365C31.8443 44.9059 32.3372 45.0504 32.8537 45.0504C33.572 45.0504 34.2461 44.7716 34.7511 44.2646L34.9728 44.0422C35.3462 43.6676 35.5854 43.2095 35.6918 42.7269C36.0035 42.8509 36.3388 42.9161 36.6848 42.9161C37.4035 42.9161 38.0772 42.6369 38.5826 42.1303L38.8042 41.9079C39.7221 40.9874 39.8335 39.5596 39.1384 38.5159L39.8773 38.0989V38.8245C39.8773 39.4978 40.4247 40.0452 41.098 40.0452H43.2079V40.3935C43.2079 41.0664 43.7557 41.6142 44.4286 41.6142H48.7793C49.4526 41.6142 50 41.0664 50 40.3935V21.5824C50 20.9091 49.4526 20.3617 48.7793 20.3617ZM5.32722 40.1489H1.46484V21.8266H5.32722V40.1489ZM13.496 40.1142C13.2126 40.1142 12.9509 40.0078 12.7586 39.8151C12.3386 39.394 12.3608 38.6868 12.8078 38.2381L13.1321 37.9128C13.356 37.6884 13.6501 37.5645 13.9603 37.5645C14.2437 37.5645 14.5054 37.6709 14.6976 37.8635C15.1176 38.2847 15.0955 38.9919 14.6484 39.4402L14.3238 39.7659C14.1003 39.9906 13.8062 40.1142 13.496 40.1142ZM16.0496 42.6758C15.7661 42.6758 15.5045 42.5697 15.3122 42.3767C14.8922 41.956 14.9143 41.2483 15.3614 40.8001L15.686 40.4743C15.9096 40.25 16.2041 40.1264 16.5142 40.1264C16.7976 40.1264 17.0593 40.2325 17.2512 40.4247C17.6708 40.8463 17.6491 41.5535 17.202 42.0021L16.8774 42.3275C16.6538 42.5522 16.3597 42.6758 16.0496 42.6758ZM18.6031 45.2374C18.3197 45.2374 18.0576 45.1313 17.8658 44.9387C17.4461 44.5175 17.4679 43.8103 17.9146 43.3621C17.9146 43.3617 17.915 43.3617 17.915 43.3617L18.2396 43.0359C18.2396 43.0359 18.2396 43.0359 18.24 43.0355C18.4635 42.8112 18.7576 42.6876 19.0674 42.6876C19.3508 42.6876 19.6129 42.794 19.8048 42.9867C20.2248 43.4078 20.2026 44.1151 19.7556 44.5637L19.4309 44.8891C19.2074 45.1138 18.9133 45.2374 18.6031 45.2374ZM21.9845 47.451C21.7609 47.6753 21.4668 47.7993 21.1567 47.7993C20.8733 47.7993 20.6116 47.6933 20.4193 47.5002C19.9997 47.0791 20.0218 46.3718 20.4685 45.9236L20.7932 45.5978C21.0171 45.3732 21.3112 45.2496 21.6213 45.2496C21.9048 45.2496 22.1664 45.3556 22.3587 45.5486C22.7783 45.9698 22.7562 46.677 22.3095 47.1252L21.9845 47.451ZM37.767 40.8733L37.545 41.0961C37.3169 41.325 37.0113 41.4513 36.6848 41.4513C36.3586 41.4513 36.0531 41.325 35.825 41.0961L30.1014 35.3527C29.8157 35.0662 29.3518 35.0655 29.0653 35.3512C28.7788 35.6365 28.7781 36.1004 29.0638 36.3869L33.9355 41.2754C34.4116 41.7534 34.4116 42.5304 33.9355 43.008L33.7135 43.2304C33.4854 43.4597 33.1799 43.5856 32.8537 43.5856C32.5272 43.5856 32.2216 43.4597 31.9935 43.2304L26.3638 37.5832C26.0784 37.2967 25.6145 37.2959 25.3281 37.5816C25.0416 37.867 25.0408 38.3308 25.3265 38.6173L29.6829 42.9878L29.7073 43.0122C30.1834 43.4898 30.1834 44.2669 29.7073 44.7445L29.4857 44.9669C29.2572 45.1962 28.9516 45.322 28.6255 45.322C28.299 45.322 27.9934 45.1962 27.7653 44.9669L21.629 38.8111C21.3432 38.5246 20.8797 38.5239 20.5929 38.8092C20.3064 39.0949 20.306 39.5584 20.5914 39.8449L25.6332 44.9032C26.1093 45.3808 26.1093 46.1578 25.6332 46.6354L25.4116 46.8578C25.1831 47.0871 24.8775 47.213 24.5514 47.213C24.3561 47.213 24.1688 47.1672 24.0005 47.0818C24.2798 46.1964 24.0803 45.2007 23.3959 44.5141C22.9271 44.0437 22.2965 43.7847 21.6213 43.7847C21.6034 43.7847 21.5858 43.7855 21.5683 43.7859C21.5828 43.1187 21.3417 42.4534 20.8424 41.9525C20.3732 41.4818 19.743 41.2228 19.0674 41.2228C19.0498 41.2228 19.0323 41.2239 19.0147 41.2239C19.0289 40.5571 18.7881 39.8914 18.2888 39.3906C17.82 38.9202 17.1894 38.6612 16.5142 38.6612C16.4963 38.6612 16.4787 38.662 16.4612 38.6623C16.4757 37.9952 16.2346 37.3299 15.7352 36.829C15.266 36.3586 14.6358 36.0992 13.9603 36.0992C13.258 36.0992 12.5957 36.3758 12.0949 36.8786L11.7702 37.204C11.6909 37.2833 11.6184 37.3673 11.5513 37.4538L10.1227 36.4319V34.6905C10.1227 34.2861 9.79462 33.9581 9.39026 33.9581C8.98552 33.9581 8.65784 34.2861 8.65784 34.6905V38.5803H6.79207V23.3952H8.65784V31.1749C8.65784 31.5796 8.98552 31.9073 9.39026 31.9073C9.79462 31.9073 10.1227 31.5796 10.1227 31.1749V26.1253H24.1451C24.472 26.1257 25.0408 26.3744 25.2934 26.6277L25.3742 26.709L20.1782 31.9214C19.6331 32.4684 19.3249 33.1924 19.31 33.9603C19.2955 34.7374 19.5839 35.4626 20.1218 36.0024C20.6459 36.5276 21.3505 36.8172 22.1054 36.8172C22.8924 36.8172 23.6347 36.507 24.1955 35.944L25.9727 34.1614C26.6529 34.5528 27.4315 34.7637 28.2219 34.7637C29.4258 34.7637 30.5576 34.2937 31.4083 33.44L31.7463 33.1009L37.767 39.1411C38.2431 39.6187 38.2431 40.3957 37.767 40.8733ZM41.3422 38.5803V31.8584C41.3422 31.4541 41.0141 31.126 40.6097 31.126C40.2054 31.126 39.8773 31.4541 39.8773 31.8584V36.417L38.1123 37.4126L32.7805 32.0637L33.5747 31.2672C33.86 30.9807 33.8593 30.5168 33.5728 30.2315C33.2863 29.9458 32.8224 29.9465 32.5371 30.233L30.3707 32.4062C29.797 32.9819 29.0337 33.2993 28.2219 33.2993C27.5391 33.2993 26.8696 33.0662 26.3367 32.6427C26.0448 32.4108 25.6256 32.4352 25.3624 32.6988L23.1583 34.9102C22.8741 35.1952 22.5002 35.3523 22.1054 35.3523C21.7422 35.3523 21.4062 35.2158 21.159 34.9682C20.9042 34.7122 20.7676 34.3639 20.7745 33.9878C20.7821 33.6002 20.9389 33.2333 21.2158 32.9552L27.7561 26.3947C27.9274 26.2226 28.1555 26.1276 28.3978 26.1276H39.8773V28.3428C39.8773 28.7476 40.205 29.0752 40.6097 29.0752C41.0141 29.0752 41.3422 28.7476 41.3422 28.3428V23.3952H43.2079V38.5803H41.3422ZM48.5352 40.1489H44.6728V21.8266H48.5352V40.1489Z" fill="#2B7AF1"/>
<path d="M46.6047 38.8381C46.7969 38.8381 46.9854 38.7599 47.1223 38.6234C47.2581 38.4864 47.3359 38.298 47.3359 38.1057C47.3359 37.9123 47.2581 37.7239 47.1223 37.5869C46.9854 37.4515 46.7969 37.3733 46.6047 37.3733C46.4113 37.3733 46.2228 37.4515 46.0862 37.5869C45.9493 37.7239 45.8711 37.9123 45.8711 38.1057C45.8711 38.298 45.9493 38.4864 46.0862 38.6234C46.2228 38.7599 46.4113 38.8381 46.6047 38.8381Z" fill="url(#paint1_linear_1_146)"/>
<path d="M25.0002 23.5378C26.5104 23.5378 27.9909 23.1304 29.2818 22.3602C29.6289 22.1527 29.7426 21.7033 29.5354 21.3558C29.3279 21.0086 28.8786 20.895 28.531 21.1021C27.4671 21.7372 26.246 22.0729 25.0002 22.0729C21.1851 22.0729 18.0811 18.9582 18.0811 15.1294C18.0811 11.301 21.1851 8.18591 25.0002 8.18591C28.8152 8.18591 31.9193 11.301 31.9193 15.1294C31.9193 16.3867 31.5809 17.6181 30.9415 18.6904C30.734 19.0376 30.8477 19.4873 31.1952 19.6945C31.5427 19.9016 31.9921 19.7883 32.1992 19.4408C32.9744 18.1415 33.3841 16.6507 33.3841 15.1294C33.3841 10.493 29.6232 6.72107 25.0002 6.72107C20.3771 6.72107 16.6162 10.493 16.6162 15.1294C16.6162 19.7658 20.3771 23.5378 25.0002 23.5378Z" fill="#2B7AF1"/>
<path d="M22.4746 14.0221V13.2321C22.4746 12.8277 22.1469 12.4997 21.7422 12.4997C21.3378 12.4997 21.0098 12.8277 21.0098 13.2321V14.0221C21.0098 14.4269 21.3378 14.7545 21.7422 14.7545C22.1469 14.7545 22.4746 14.4269 22.4746 14.0221Z" fill="url(#paint2_linear_1_146)"/>
<path d="M28.9902 14.0221V13.2321C28.9902 12.8277 28.6626 12.4997 28.2578 12.4997C27.8535 12.4997 27.5254 12.8277 27.5254 13.2321V14.0221C27.5254 14.4269 27.8535 14.7545 28.2578 14.7545C28.6626 14.7545 28.9902 14.4269 28.9902 14.0221Z" fill="url(#paint3_linear_1_146)"/>
<path d="M24.9999 19.4991C26.7471 19.4991 28.1688 18.1941 28.1688 16.5901C28.1688 16.1857 27.8407 15.8576 27.4364 15.8576C27.032 15.8576 26.7039 16.1857 26.7039 16.5901C26.7039 17.3862 25.9395 18.0343 24.9999 18.0343C24.0604 18.0343 23.2959 17.3862 23.2959 16.5901C23.2959 16.1857 22.9678 15.8576 22.5635 15.8576C22.1587 15.8576 21.8311 16.1857 21.8311 16.5901C21.8311 18.1941 23.2524 19.4991 24.9999 19.4991Z" fill="url(#paint4_linear_1_146)"/>
<path d="M37.1982 10.8067C39.9551 10.8067 42.1974 8.55827 42.1974 5.79414C42.1974 5.04761 42.033 4.3396 41.7396 3.70255L42.3668 3.0735C42.6525 2.78702 42.6517 2.32315 42.3653 2.03743C42.0788 1.75209 41.6149 1.75285 41.3296 2.03934L40.9195 2.45056C40.0036 1.4267 38.6749 0.78125 37.1986 0.78125C34.4421 0.78125 32.1995 3.03001 32.1995 5.79376C32.1995 8.55789 34.4417 10.8067 37.1982 10.8067ZM37.1982 2.24609C38.2717 2.24609 39.2342 2.7298 39.883 3.49045L37.1982 6.18362L35.6384 4.61845C35.3531 4.33197 34.8892 4.33159 34.6027 4.61693C34.3162 4.90227 34.3155 5.36613 34.6008 5.65262L36.4727 7.53059C36.6665 7.72476 36.924 7.83157 37.1982 7.83157C37.4729 7.83157 37.7304 7.72476 37.9238 7.53059L40.6025 4.84314C40.6868 5.14603 40.7326 5.46494 40.7326 5.79414C40.7326 7.75032 39.1472 9.34181 37.1982 9.34181C35.2493 9.34181 33.6639 7.75032 33.6639 5.79414C33.6643 3.83797 35.2497 2.24609 37.1982 2.24609Z" fill="#2B7AF1"/>
<path d="M7.98264 10.7159L7.72401 12.2246C7.6397 12.7155 7.83768 13.2023 8.24052 13.4953C8.46406 13.6574 8.72803 13.7432 9.00422 13.7432C9.21403 13.7432 9.42307 13.6917 9.60885 13.5941L10.9638 12.8819L12.3184 13.5941C12.5042 13.6917 12.7132 13.7432 12.9231 13.7432C13.1989 13.7432 13.4632 13.6578 13.6868 13.4953C14.0896 13.2023 14.2876 12.7155 14.2037 12.2246L13.945 10.7162L15.041 9.64775C15.3977 9.30023 15.5235 8.78983 15.3694 8.31566C15.2157 7.84225 14.8136 7.50351 14.3208 7.43179L12.8059 7.21169L12.1288 5.83878C11.9083 5.39246 11.4616 5.11475 10.9638 5.11475C10.4656 5.11475 10.0193 5.39246 9.79882 5.83916L9.12133 7.21169L7.60651 7.43179C7.11365 7.50351 6.71197 7.84225 6.55785 8.31604C6.40412 8.78983 6.53 9.30023 6.88668 9.64775L7.98264 10.7159ZM9.71299 8.60596C9.95141 8.57124 10.1578 8.42133 10.2642 8.20503L10.9634 6.78825L11.6627 8.20503C11.7695 8.42133 11.9759 8.57124 12.2143 8.60596L13.7779 8.83293L12.6465 9.93576C12.4737 10.104 12.3951 10.3466 12.4359 10.5843L12.7029 12.1414L11.3045 11.4059C11.1977 11.3499 11.0806 11.322 10.9634 11.322C10.8467 11.322 10.7296 11.3499 10.6228 11.4059L9.22433 12.1414L9.49135 10.5843C9.53217 10.3466 9.45359 10.104 9.28078 9.93576L8.14934 8.83293L9.71299 8.60596Z" fill="url(#paint5_linear_1_146)"/>
<defs>
<linearGradient id="paint0_linear_1_146" x1="2.66309" y1="38.1057" x2="4.12935" y2="38.0998" gradientUnits="userSpaceOnUse">
<stop stop-color="#FF7A00"/>
<stop offset="1" stop-color="#FFB039"/>
</linearGradient>
<linearGradient id="paint1_linear_1_146" x1="45.8711" y1="38.1057" x2="47.3362" y2="38.0998" gradientUnits="userSpaceOnUse">
<stop stop-color="#FF7A00"/>
<stop offset="1" stop-color="#FFB039"/>
</linearGradient>
<linearGradient id="paint2_linear_1_146" x1="21.0098" y1="13.6271" x2="22.4749" y2="13.6233" gradientUnits="userSpaceOnUse">
<stop stop-color="#FF7A00"/>
<stop offset="1" stop-color="#FFB039"/>
</linearGradient>
<linearGradient id="paint3_linear_1_146" x1="27.5254" y1="13.6271" x2="28.9905" y2="13.6233" gradientUnits="userSpaceOnUse">
<stop stop-color="#FF7A00"/>
<stop offset="1" stop-color="#FFB039"/>
</linearGradient>
<linearGradient id="paint4_linear_1_146" x1="21.8311" y1="17.6784" x2="28.1698" y2="17.6339" gradientUnits="userSpaceOnUse">
<stop stop-color="#FF7A00"/>
<stop offset="1" stop-color="#FFB039"/>
</linearGradient>
<linearGradient id="paint5_linear_1_146" x1="6.49341" y1="9.42898" x2="15.4358" y2="9.39158" gradientUnits="userSpaceOnUse">
<stop stop-color="#FF7A00"/>
<stop offset="1" stop-color="#FFB039"/>
</linearGradient>
</defs>
</svg>
