<svg width="25" height="25" viewBox="0 0 25 25" fill="none" xmlns="http://www.w3.org/2000/svg">
<circle cx="12.5" cy="12.5" r="12.5" fill="#2B7AF1"/>
<path d="M14.1915 14.5734L15.0665 13.6984C15.1843 13.582 15.3334 13.5023 15.4957 13.469C15.658 13.4358 15.8264 13.4503 15.9805 13.5109L17.0469 13.9367C17.2027 13.9999 17.3363 14.1078 17.4309 14.2469C17.5254 14.3859 17.5767 14.5498 17.5782 14.7179V16.6711C17.5773 16.7854 17.5533 16.8984 17.5075 17.0033C17.4618 17.1081 17.3953 17.2026 17.3121 17.281C17.2289 17.3595 17.1307 17.4203 17.0233 17.4598C16.916 17.4993 16.8018 17.5167 16.6876 17.5109C9.21492 17.0461 7.70711 10.7179 7.42195 8.29605C7.40871 8.17712 7.42081 8.05673 7.45744 7.94281C7.49407 7.82889 7.5544 7.72402 7.63448 7.63509C7.71455 7.54616 7.81254 7.47519 7.92201 7.42686C8.03148 7.37852 8.14994 7.35391 8.26961 7.35465H10.1563C10.3247 7.35514 10.4891 7.406 10.6283 7.50067C10.7675 7.59535 10.8752 7.7295 10.9376 7.8859L11.3634 8.9523C11.426 9.10584 11.4419 9.27443 11.4093 9.43699C11.3766 9.59956 11.2968 9.7489 11.1798 9.86636L10.3048 10.7414C10.3048 10.7414 10.8087 14.1515 14.1915 14.5734Z" fill="white"/>
</svg>
